<?xml version="1.0" standalone="no"?><!DOCTYPE svg PUBLIC "-//W3C//DTD SVG 1.1//EN" "http://www.w3.org/Graphics/SVG/1.1/DTD/svg11.dtd"><svg t="1494837265834" class="icon" style="" viewBox="0 0 1024 1024" version="1.1" xmlns="http://www.w3.org/2000/svg" p-id="5447" xmlns:xlink="http://www.w3.org/1999/xlink" width="200" height="200"><defs><style type="text/css"></style></defs><path d="M 699.354 53.337 c 210.245 91.746 317.815 281.413 286.544 489.968 c -32.452 216.263 -204.282 382.935 -421.703 408.968 c -200.333 24.014 -403.165 -94.836 -487.363 -285.523 c -84.974 -192.543 -34.359 -412.73 125.087 -548.614 c 61.466 -52.36 127.045 -84.922 192.247 -14.05 c 59.534 64.692 31.753 122.13 -27.133 176.693 c -131.747 122.047 -159.203 222.981 -102.84 350.052 c 56.256 126.697 173.763 193.323 322.972 183.113 c 149.183 -10.235 275.743 -106.274 312.389 -247.211 c 56.578 -217.662 -21.867 -385.007 -200.199 -513.396 Z" p-id="5448" fill="#ffffff"></path></svg>